<svg width="39" height="39" viewBox="0 0 39 39" fill="none" xmlns="http://www.w3.org/2000/svg">
<path d="M28 32H12C9.8 32 8 30.2 8 28V12C8 9.8 9.8 8 12 8H28C30.2 8 32 9.8 32 12V28C32 30.2 30.2 32 28 32ZM12 10C10.9 10 10 10.9 10 12V28C10 29.1 10.9 30 12 30H28C29.1 30 30 29.1 30 28V12C30 10.9 29.1 10 28 10H12Z" fill="#868686"/>
<path d="M16 32C15.4 32 15 31.6 15 31V9C15 8.4 15.4 8 16 8C16.6 8 17 8.4 17 9V31C17 31.6 16.6 32 16 32Z" fill="#868686"/>
<path d="M24.9893 21C25.2893 21 25.4893 20.9 25.6893 20.7C26.0893 20.3 26.0893 19.7 25.6893 19.3L22.6893 16.3C22.2893 15.9 21.6893 15.9 21.2893 16.3C20.8893 16.7 20.8893 17.3 21.2893 17.7L24.2893 20.7C24.4893 20.9 24.6893 21 24.9893 21Z" fill="#868686"/>
<path d="M21.9893 24C22.2893 24 22.4893 23.9 22.6893 23.7L25.6893 20.7C26.0893 20.3 26.0893 19.7 25.6893 19.3C25.2893 18.9 24.6893 18.9 24.2893 19.3L21.2893 22.3C20.8893 22.7 20.8893 23.3 21.2893 23.7C21.4893 23.9 21.6893 24 21.9893 24Z" fill="#868686"/>
</svg>
